<svg width="32" height="32" viewBox="0 0 32 32" xmlns="http://www.w3.org/2000/svg">
  <!-- Background circle -->
  <circle cx="16" cy="16" r="16" fill="#D4A574"/>
  
  <!-- Camel silhouette -->
  <path d="M8 24 Q8 22 9 20 Q10 18 12 17 Q13 16 14 15 Q15 14 16 13 Q17 12 18 13 Q19 14 20 15 Q21 16 22 17 Q23 18 24 20 Q24 22 24 24 L23 24 Q23 22 22 20 Q21 19 20 18 Q19 17 18 16.5 Q17 16 16 16 Q15 16 14 16.5 Q13 17 12 18 Q11 19 10 20 Q9 22 9 24 Z" fill="#8B4513"/>
  
  <!-- Camel hump -->
  <ellipse cx="16" cy="14" rx="4" ry="3" fill="#A0522D"/>
  
  <!-- Camel head -->
  <ellipse cx="20" cy="12" rx="2" ry="2.5" fill="#8B4513"/>
  
  <!-- Camel neck -->
  <path d="M18 13 Q19 12 20 11 Q21 10 22 11 Q21 12 20 12.5 Q19 13 18 13" fill="#8B4513"/>
  
  <!-- Simple eye -->
  <circle cx="21" cy="11.5" r="0.5" fill="#2C1810"/>
  
  <!-- Simple legs -->
  <rect x="13" y="20" width="1" height="4" fill="#8B4513"/>
  <rect x="15" y="20" width="1" height="4" fill="#8B4513"/>
  <rect x="17" y="20" width="1" height="4" fill="#8B4513"/>
  <rect x="19" y="20" width="1" height="4" fill="#8B4513"/>
</svg>